<svg xmlns="http://www.w3.org/2000/svg" width="164.954" height="29.46" viewBox="0 0 164.954 29.46">
    <g data-name="Group 2719">
        <path data-name="Path 30619" d="m576.516 565 3.657 11.253H592l-9.572 6.955 3.656 11.253-9.572-6.955-9.572 6.955 3.656-11.253-9.572-6.955h11.836z" transform="translate(-561.028 -565)" style="fill:#00b57a"/>
        <path data-name="Path 30735" d="m576.516 565 3.657 11.253H592l-9.572 6.955 3.656 11.253-9.572-6.955-9.572 6.955 3.656-11.253-9.572-6.955h11.836z" transform="translate(-530.268 -565)" style="fill:#00b57a"/>
        <path data-name="Path 30736" d="m576.516 565 3.657 11.253H592l-9.572 6.955 3.656 11.253-9.572-6.955-9.572 6.955 3.656-11.253-9.572-6.955h11.836z" transform="translate(-497.457 -565)" style="fill:#00b57a"/>
        <path data-name="Path 30737" d="m576.516 565 3.657 11.253H592l-9.572 6.955 3.656 11.253-9.572-6.955-9.572 6.955 3.656-11.253-9.572-6.955h11.836z" transform="translate(-463.279 -565)" style="fill:#00b57a"/>
        <path data-name="Path 30738" d="m576.516 565 3.657 11.253H592l-9.572 6.955 3.656 11.253-9.572-6.955-9.572 6.955 3.656-11.253-9.572-6.955h11.836z" transform="translate(-427.05 -565)" style="fill:#00b57a"/>
    </g>
</svg>
