<svg xmlns="http://www.w3.org/2000/svg" width="198.506" height="76.03" viewBox="0 0 198.506 76.03">
    <g data-name="Group 2721">
        <path data-name="Path 30915" d="M102.883 215.378a.856.856 0 0 1-.349-.091 2.744 2.744 0 0 0-.62-.165c-.04.008-.071-.005-.1-.121v-.492l-.921-.475h.053c.521-.144.987-.362 1.471-.033.037.025.125-.025.231-.047a.515.515 0 0 1 .261.152c.135.095.262.146.4.248.585.151 1.16.251 1.773.391a4.476 4.476 0 0 0 .831.088h55.747c.334 0 .67-.023 1 .006.421.037.568-.151.561-.541h.261a.2.2 0 0 0 .14-.039 3.127 3.127 0 0 0 .093-.7v-71.287a2.215 2.215 0 0 0-.163-.693h-.133c-.03 0-.09.006-.1-.028a2.127 2.127 0 0 1-.224-.15c-.069-.161-.123-.276-.179-.434a.653.653 0 0 0-.192-.326q-29.056 0-57.988.007a2.782 2.782 0 0 0-.776.165 5.945 5.945 0 0 1-.436.452.688.688 0 0 1-.364.038c-.1-.07-.185-.1-.289-.165a.635.635 0 0 0-.383.088 1.94 1.94 0 0 1 .059.326.217.217 0 0 1-.184-.019 3 3 0 0 0-1.218.306 37.5 37.5 0 0 0-2.98 2.336c-.367.321-.8.745-.576 1.385 0 .013-.017.03-.069.03-.205.127-.446.226-.5.387-.336 1.023-.63 2.06-.975 3.126-.1.326-.161.618-.223.91l-.135-.025v-.914l-.2.395-.313-.8a9.914 9.914 0 0 1 5.762-7.889 15.622 15.622 0 0 1 3.544-.963c.235.092.4.128.566.2v.129a.254.254 0 0 0 .032.143 3.516 3.516 0 0 0 .759.088h45.648q65.664 0 131.328-.005a3.038 3.038 0 0 0 .817-.161v-.1h.058c.388.027.718.077 1.045.07.124 0 .246-.139.368-.214a8.623 8.623 0 0 1 4.215 1.821 10.167 10.167 0 0 1 4.224 8.139c.013.334.013.668.013 1v54.111a10.347 10.347 0 0 1-8.174 10.4c-.634-.006-1.19.023-1.809.053H176.804q-35.646 0-71.291.007a5.093 5.093 0 0 0-.88.153.281.281 0 0 1-.227-.034 12.822 12.822 0 0 0-1.519-.251m156.475-41.162c-.436-.033-.859-.05-.791.595 0 0 0 .017-.1-.034l-.445-.029c-.118-.534-.118-.534-.507-.454h-1.849v12.158c.575 0 1.089.03 1.6-.016.187-.017.357-.215.6-.373a5.75 5.75 0 0 0-.111-.324.442.442 0 0 1 .126-.233.976.976 0 0 0 .071-.25c0-1.9.007-3.809 0-5.714a2.752 2.752 0 0 0-.172-.52 3.587 3.587 0 0 1 1.146-2.46 2.987 2.987 0 0 1 3.229-.558c1.023.393 1.25 1.362 1.3 2.362.015.333.013.668.013 1q0 3.271.007 6.542c0 .17.024.34.043.569h2.117l.358-.184c-.045-.955-.114-1.943-.135-2.931-.024-1.134 0-2.268-.007-3.4a12.529 12.529 0 0 0-.381-4.128c-.278-.808-.477-1.106-1.114-1.09 0 0-.028.046 0-.072v-.76l-.142.145a2.487 2.487 0 0 0-.731-.3c-.329-.024-.741-.236-1.069.24a.326.326 0 0 1-.19-.15c-.172.019-.345.038-.624.077a.971.971 0 0 1-.464-.128 1.342 1.342 0 0 0-1.683.457s.023 0-.091-.024m-36.595 5.594c.1-.087.2-.173.368-.3a.357.357 0 0 1 .186-.146 2.208 2.208 0 0 1 2.19 2.3c.107 1.57.2 3.14.3 4.787.941 0 1.759.005 2.578-.006.115 0 .294-.06.325-.139a.373.373 0 0 0-.112-.338 2.048 2.048 0 0 1-.7-1.836c-.035-.888-.06-1.777-.106-2.665-.071-1.374-.335-2.648-1.936-3.241a4.355 4.355 0 0 0 2.2-4.587 3.731 3.731 0 0 0-2.831-3.534 8 8 0 0 0-2.093-.345c-2.736-.056-5.474-.052-8.23-.165-.475-.1-.241.283-.241.411q-.022 7.753 0 15.505a2.178 2.178 0 0 0 .219.689c.078.092.153.261.234.264.659.022 1.319.012 2.09.012 0-2.185 0-4.29.079-6.461a2.509 2.509 0 0 1 .656-.193c1.579-.016 3.156-.007 4.828-.009m-24.371-.654a.659.659 0 0 1-.31.255c-1.224 0-2.447-.011-3.671.01a1.223 1.223 0 0 0-.642.316.344.344 0 0 1-.141.115 2.129 2.129 0 0 0-.214.716c.021.3-.282.8.373.851l.034.116a2.874 2.874 0 0 0 .609.142c1 .015 2 0 3 .007.711 0 1.038.286 1.038.977 0 1.063-.063 2.126-.048 3.189 0 .21.243.416.491.621.512 0 1.024.009 1.648 0a2.6 2.6 0 0 0 .181-.646c.017-1.134 0-2.268.008-3.4 0-.256.033-.512.05-.747 1.454 0 2.829.011 4.2-.013.185 0 .366-.181.543-.4 0-.52 0-1.041-.012-1.672a2.615 2.615 0 0 0-.642-.178c-1.246-.02-2.493-.014-3.758-.113a3.508 3.508 0 0 1-.366-.99c-.049-1-.008-2-.024-3.006a1.887 1.887 0 0 0-.143-.775c-.158-.326-.319-.244-.5.125a6.623 6.623 0 0 1-.987-.1 2.3 2.3 0 0 0-.31.145c-.03.008-.061.017-.19.063a2.949 2.949 0 0 0-.133.607c-.011 1.256 0 2.512-.089 3.781m46.124 5.555c.3 1.3.858 1.834 2.113 1.881a16.567 16.567 0 0 0 1.841-.126v-1.691h-.634c-1.049-.007-1.25-.2-1.253-1.23q-.008-3.005-.008-6.011V176h1.881v-1.773h-1.9v-3.32h-2.072c0 .978-.016 1.888.008 2.8.011.4-.111.577-.525.551-.368-.023-.737 0-1.1 0v1.785h1.6a1.307 1.307 0 0 1-.14.606c-.043.072-.123.144-.123.216-.007 2.462-.011 4.924 0 7.386 0 .128.167.254.311.467m32.328 5.773a5.393 5.393 0 0 0 1.806-4.4c.023-3.784.008-7.569.005-11.354a3.213 3.213 0 0 0-.062-.441h-1.922v1.633a4.577 4.577 0 0 0-7.735.254 8.316 8.316 0 0 0-.047 7.924 4.667 4.667 0 0 0 6 2.394 10.359 10.359 0 0 0 1.7-1.039c-.031.539-.025 1.049-.095 1.548a3.282 3.282 0 0 1-4.854 2.48 1.9 1.9 0 0 1-.917-.881c-.235-.69-.662-.778-1.255-.716a3.245 3.245 0 0 1-.667 0c-.369-.039-.5.108-.413.462a3.414 3.414 0 0 0 1.659 2.459 6.625 6.625 0 0 0 6.8-.32m-95.653-13.6-3.558 9.521h2.366c.537-1.476 1.056-2.938 1.614-4.385a.752.752 0 0 1 .535-.415c2.067-.03 4.134-.019 6.228-.019.5 1.464.982 2.912 1.5 4.349.074.2.3.484.474.5.679.058 1.366.024 2.177.024-.2-.6-.363-1.111-.547-1.62q-2.43-6.725-4.862-13.449c-.607-1.687-.591-1.693-2.409-1.69a1.858 1.858 0 0 1-.333 0c-.354-.065-.512.1-.631.423a438.953 438.953 0 0 1-2.553 6.765m59.382 1.65v-1.2a2.952 2.952 0 0 0-2.021-2.976 7.323 7.323 0 0 0-5.164-.033 3.364 3.364 0 0 0-2.279 3.587h1.624a8.687 8.687 0 0 1 1.135-1.744c.862-.793 3.176-.693 4.086.066a1.785 1.785 0 0 1 .5 1.945c-.154.677-.658.788-1.252.861a34.033 34.033 0 0 0-4.146.625 3.436 3.436 0 0 0-2.641 3.8 3.368 3.368 0 0 0 2.973 3.248 5.5 5.5 0 0 0 4.761-1.377c.135-.125.282-.239.458-.388.318 1.606 1.458 2.083 3.29 1.459v-1.378c-1.322-.2-1.322-.2-1.323-1.551v-4.944m9.9 4.678v3.174h2.089v-12.1h-2.089v8.924m2.119-13.309-2.095-.274v2.418h2.1v-2.144m-148.434 45.309.1-.057c-.033-.018-.074-.056-.1-.047s-.04.062 0 .1m59.327-.567.048-.1-.095-.029a.118.118 0 0 0 .046.133z" transform="translate(-95.043 -139.723)" style="fill:#093360"/>
        <path data-name="Path 30916" d="M94.543 206.366a5.134 5.134 0 0 1 .342.757l.2-.395v.914l.135.025a5.923 5.923 0 0 1 .224-.848q.056 27.845.038 55.633a11.8 11.8 0 0 0 .03 2.066 4.639 4.639 0 0 0 .732 1.321 2.122 2.122 0 0 1 .163.63.967.967 0 0 0-.117.466c.019.247.082.491.126.79-.117.294-.235.535-.352.775a8.433 8.433 0 0 1-1.532-4.688 2.345 2.345 0 0 0 .149-.713q.008-27.666 0-55.333a2.21 2.21 0 0 0-.2-.633 7.594 7.594 0 0 1 .062-.767z" transform="translate(-94.444 -197.372)" style="fill:#1e406a"/>
        <path data-name="Path 30917" d="M345.684 139.319c-.065.082-.187.218-.311.221a5.676 5.676 0 0 1-1.076-.115 5.26 5.26 0 0 0-.885-.086H167.428c-.579 0-1.158 0-1.737.005a2.885 2.885 0 0 1-.516-.146 5.521 5.521 0 0 1 1.043-.113q88.761-.006 177.521.005a16.468 16.468 0 0 1 1.945.229z" transform="translate(-155.688 -139.08)" style="fill:#001e4a"/>
        <path data-name="Path 30918" d="M166.205 706.173a3.148 3.148 0 0 1 .842-.172q35.646-.011 71.291-.007h106.8a.692.692 0 0 1 .274.176 6.943 6.943 0 0 1-.726.074q-88.723 0-177.445-.005a11.417 11.417 0 0 1-1.036-.066z" transform="translate(-156.58 -630.213)" style="fill:#001c3f"/>
        <path data-name="Path 30919" d="M94.225 212.555a1.288 1.288 0 0 1 .214.573q.012 27.666 0 55.333a2.175 2.175 0 0 1-.132.659 3 3 0 0 1-.107-.774v-55.062c0-.223.008-.446.025-.729z" transform="translate(-94.199 -202.733)" style="fill:#001437"/>
        <path data-name="Path 30920" d="M106.367 666.15a6.656 6.656 0 0 1 .4-.807c.662-.083.449.471.623.8a10.162 10.162 0 0 0 .936.481c-.006 0 0-.006 0 .037a2.237 2.237 0 0 1-.407.192 4.1 4.1 0 0 0 .108.659.367.367 0 0 0 .272.2c.373.01.747-.019 1.112-.029-.008 0 0-.011 0 .036.02.276.045.505.073.754h1.205c.022 0 .043.038.043.089-.044.28-.087.51-.131.739h-.048c-.406-.437-1.169-.146-1.419-.772l-.44.193a1.121 1.121 0 0 1-.232-.2.569.569 0 0 0-.163-.147 4.214 4.214 0 0 1-.624-.634 2.394 2.394 0 0 0 .009-.393l-.308.13a.449.449 0 0 1-.144-.242c.082-.627-.045-.968-.679-.835a.038.038 0 0 0 .007-.044.754.754 0 0 0-.138-.12s-.047-.044-.05-.077m2.308 1.887.122-.154-.15-.08a.408.408 0 0 0 .023.225z" transform="translate(-104.741 -594.991)" style="fill:#093360"/>
        <path data-name="Path 30921" d="M123.91 689.419a1.824 1.824 0 0 1 .417-.229c.25.626 1.014.335 1.419.772.327.15.608.294.968.48 0 .015 0 .213-.005.467a46.335 46.335 0 0 1-2.799-1.49z" transform="translate(-119.94 -615.657)" style="fill:#1e406a"/>
        <path data-name="Path 30922" d="M1505.565 705.782c-.112-.076-.172-.134-.265-.2a26.047 26.047 0 0 1 1.659-.062 11.008 11.008 0 0 1-1.394.262z" transform="translate(-1316.678 -629.808)" style="fill:#1e406a"/>
        <path data-name="Path 30923" d="M107.782 673.274c.626-.178.753.163.668.752a4.638 4.638 0 0 1-.668-.752z" transform="translate(-105.967 -601.827)" style="fill:#1e406a"/>
        <path data-name="Path 30924" d="M153.106 705.365a7.947 7.947 0 0 1 1.443.194 7.966 7.966 0 0 1-1.443-.194z" transform="translate(-145.233 -629.67)" style="fill:#1e406a"/>
        <path data-name="Path 30925" d="M113.943 680.489a1.1 1.1 0 0 1 .3-.166 1.105 1.105 0 0 1-.026.353.549.549 0 0 1-.274-.187z" transform="translate(-111.304 -607.975)" style="fill:#1e406a"/>
        <path data-name="Path 30926" d="M145.9 703.338a1.727 1.727 0 0 1 .538.118 1.727 1.727 0 0 1-.538-.118z" transform="translate(-138.988 -627.913)" style="fill:#1e406a"/>
        <path data-name="Path 30927" d="M120.831 688.289c.036-.015.078.011.135.072-.033.013-.081-.009-.135-.072z" transform="translate(-117.272 -614.873)" style="fill:#1e406a"/>
        <path data-name="Path 30928" d="M106.755 672.3c.04-.011.083.019.131.09-.039.01-.086-.015-.131-.09z" transform="translate(-105.078 -601.027)" style="fill:#1e406a"/>
        <path data-name="Path 30929" d="M108.77 220.982a.262.262 0 0 0-.073-.075c-.449-.279-.846-.522-1.243-.764 0 0-.01.016-.01-.034-.356-.373-.712-.7-1.069-1.021 0 0-.01.01-.011-.039-.2-.274-.389-.5-.589-.766-.169-.291-.333-.538-.5-.829-.072-.132-.142-.221-.213-.352a6.898 6.898 0 0 0-.266-.548l-.208-.676a18.208 18.208 0 0 1-.457-2.906q-.038-27.219-.025-54.438a11.008 11.008 0 0 1 1.2-5.2l.059-.054a9.863 9.863 0 0 1 4.778-3.968.663.663 0 0 0 .165-.012c.249-.083.429-.149.609-.214.1-.016.2-.031.39-.066.284-.064.478-.108.715-.142.1-.006.158-.023.26-.025.194-.013.344-.042.555-.06q28.537.015 56.951.008c.288 0 .575-.03.863-.047a1.882 1.882 0 0 1 .159.45c-.007.306-.01.506-.01.707v70.527c0 .534.009 1.068-.021 1.625a.854.854 0 0 1-.322.109q-28.739-.027-57.357-.027a15.152 15.152 0 0 1-1.906-.163.653.653 0 0 0-.189-.12 2.863 2.863 0 0 0-.366-.065 3.107 3.107 0 0 0-.288-.14c-.581-.243-1.084-.46-1.588-.678m35.024-3.941.255.061c1.018 0 2.035.013 3.053 0 1.524-.016 3.048-.046 4.681-.04a14.489 14.489 0 0 0 2.344-.673 3.651 3.651 0 0 0 2.109-3.683 3.054 3.054 0 0 0-2.2-3.07 2.315 2.315 0 0 1-.271-.148c.192-.145.332-.242.462-.351a3.694 3.694 0 0 0 1.268-3.536 3.02 3.02 0 0 0-2.3-2.572 12.293 12.293 0 0 0-3-.5c-2.131-.073-4.266-.022-6.47-.022v13.795c0 .175.031.35.027.594a.3.3 0 0 1 .032.142m-15.807-2.483a1.033 1.033 0 0 1 .108-.344.827.827 0 0 1 .092-.3c.446-2.25-.387-3.812-2.295-4.406.033-.054.053-.131.1-.159a3.73 3.73 0 0 0 1.484-4.069c-.419-1.543-1.594-2.188-3.069-2.542-.036-.016-.067-.009-.192-.036a3.191 3.191 0 0 1-.451-.07c-.809-.036-1.619-.072-2.55-.139-1.7.01-3.4.02-5.2.005a2.009 2.009 0 0 0-.209.6q-.018 6.54-.008 13.08v.873a2.736 2.736 0 0 0 .364.055c2.358 0 4.717.033 7.074-.018a8.113 8.113 0 0 0 2.279-.4 3.411 3.411 0 0 0 2.383-2.122s.025.021.088-.014m3.1-14.629c3.163-.01 6.327-.021 9.6.014h.868l1.248-4.182h6.555c-.21-.689-.442-1.288-.57-1.908-.159-.767-.561-.975-1.335-.972-7.548.031-15.1.019-22.645.019h-1.286l-1.055 2.911c2.16 0 4.185.019 6.209-.014a.679.679 0 0 1 .789.588c.294 1.023.608 2.042.961 3.046.069.195.355.313.663.5m6.926 17.128c2.325-.241 3.8-1.318 4.227-3.219.389-1.75-.064-3.475-2.022-4.171a2.016 2.016 0 0 1-.325-.193 3.706 3.706 0 0 0 .932-5.489 4.037 4.037 0 0 0-2.952-1.33c-2.462-.121-4.93-.118-7.4-.163-.194 0-.389.016-.616.027-.011.239-.029.436-.029.633v13.218c0 .152.032.3.039.576a2.524 2.524 0 0 0 .586.152q1.5.023 3 0c1.484-.017 2.968-.048 4.558-.046m-4.137-62.345c-1.129 1.744-2.389 3.42-3.355 5.25a8.065 8.065 0 0 0-.228 7.2 11.079 11.079 0 0 0 3.942 4.318c2.1 1.563 4.258 3.038 6.345 4.611a4.085 4.085 0 0 1 1.658 5.026 11.864 11.864 0 0 1-.568 1.27l.684.454c.12-.146.237-.274.338-.415 1.872-2.611 3.771-5.2 5.6-7.843a8.533 8.533 0 0 0 1.6-4.382 8.072 8.072 0 0 0-3.286-6.949c-2.877-2.328-5.884-4.5-8.906-6.642a2.837 2.837 0 0 1-1.218-3.462c.178-.6 0-.865-.566-1.075-.655.852-1.314 1.709-2.038 2.636m2.059 22.453c-1.273-.883-2.574-1.731-3.811-2.662-.889-.669-.961-1.147-.529-2.038-.784-.662-.8-.677-1.415.08-.753.933-1.512 1.865-2.194 2.85a7.9 7.9 0 0 0-1.562 4.052c-.128 2.281 1.1 3.869 2.8 5.148 1.824 1.372 3.695 2.682 5.548 4.013a1.513 1.513 0 0 1 .563 1.822.656.656 0 0 0 .229.534 2.178 2.178 0 0 0 .647.251c.375-.525.734-1 1.067-1.5a21.031 21.031 0 0 0 2.645-3.968 5.3 5.3 0 0 0-1.123-6.186c-.861-.849-1.855-1.565-2.865-2.4m22.343 39.878.258-.6a.878.878 0 0 1 .151.429c.022.122.064.24.111.409a1.761 1.761 0 0 0-.21-1.779l-.478 1.081c-.1-.265-.154-.453-.23-.635-.068-.161-.154-.315-.231-.472l-.232.038-.113 1.714.2.026.156-.749a2.291 2.291 0 0 0 .62.534m-1.688-1.288.428-.106-.07-.227c-.24.09-.587.108-.7.281-.4.608.467.656.574 1.133l-.668.211.081.239c.28-.106.662-.133.817-.335.255-.333-.006-.594-.339-.777-.09-.029-.126-.206-.109-.392z" transform="translate(-102.784 -147.463)" style="fill:#fdfefe"/>
        <path data-name="Path 30930" d="M992.909 373.624v6.395c-.771 0-1.431.009-2.09-.012-.081 0-.156-.172-.242-.368-.009-5.075-.011-10.046-.007-15.017 0-.464.041-.927.062-1.391 2.736.019 5.474.015 8.21.071a7.994 7.994 0 0 1 2.093.345 3.731 3.731 0 0 1 2.831 3.534 4.355 4.355 0 0 1-2.2 4.587c1.6.593 1.865 1.867 1.935 3.242.045.888.071 1.777.106 2.665a2.047 2.047 0 0 0 .7 1.836.373.373 0 0 1 .112.338c-.031.079-.21.138-.325.139-.819.011-1.637.006-2.578.006-.1-1.647-.2-3.218-.3-4.787a2.252 2.252 0 0 0-2.292-2.311c-2.029-.021-3.957-.026-5.927-.032a.628.628 0 0 0-.107.281c0 .195.009.337.02.48m2.329-8.391c-.6 0-1.2.02-1.8-.006-.436-.019-.58.129-.572.576.024 1.537.005 3.074.01 4.611a2.972 2.972 0 0 0 .076.458c1.8 0 3.562.063 5.316-.029a4.9 4.9 0 0 0 2.247-.649 2.9 2.9 0 0 0 .787-3.277 2.33 2.33 0 0 0-2.386-1.656c-1.183-.052-2.365-.023-3.679-.029z" transform="translate(-870.751 -333.268)" style="fill:#f7f9fb"/>
        <path data-name="Path 30931" d="M1396.324 411.448a6.608 6.608 0 0 1-6.761.292 3.413 3.413 0 0 1-1.659-2.459c-.086-.354.044-.5.413-.463a3.244 3.244 0 0 0 .667 0c.594-.061 1.02.026 1.255.716a1.9 1.9 0 0 0 .917.881 3.282 3.282 0 0 0 4.854-2.48c.069-.5.064-1.01.095-1.548a10.354 10.354 0 0 1-1.7 1.039 4.667 4.667 0 0 1-6-2.393 8.315 8.315 0 0 1 .047-7.924 4.577 4.577 0 0 1 7.735-.254v-1.633h1.922a3.2 3.2 0 0 1 .062.442c0 3.785.017 7.569-.005 11.354a5.393 5.393 0 0 1-1.846 4.428m-6.15-13.146a7.828 7.828 0 0 0 0 5.792 2.857 2.857 0 0 0 2.82 1.824 3.137 3.137 0 0 0 2.787-1.924 7.617 7.617 0 0 0-.1-5.347 2.66 2.66 0 0 0-2.35-1.9 2.963 2.963 0 0 0-3.157 1.555z" transform="translate(-1214.561 -360.659)" style="fill:#f4f8f9"/>
        <path data-name="Path 30932" d="M715.753 370.439c.863-2.268 1.7-4.492 2.522-6.723.118-.321.276-.489.631-.423a1.861 1.861 0 0 0 .333 0c1.818 0 1.8 0 2.409 1.69q2.42 6.729 4.862 13.449c.184.508.346 1.024.547 1.62-.812 0-1.5.035-2.177-.024-.175-.015-.4-.294-.474-.5-.516-1.437-1-2.885-1.5-4.349-2.094 0-4.161-.011-6.228.019a.753.753 0 0 0-.535.415c-.559 1.447-1.077 2.91-1.614 4.385h-2.366c1.2-3.211 2.379-6.366 3.589-9.564m6.205 2.388a.406.406 0 0 1-.012-.108l-2.3-6.867c-.328.9-.6 1.618-.855 2.343-.553 1.558-1.1 3.118-1.681 4.783.09.045.18.13.269.13 1.508 0 3.016-.016 4.6-.012-.008-.083-.013-.17-.02-.264z" transform="translate(-629.561 -333.31)" style="fill:#f5f9fa"/>
        <path data-name="Path 30933" d="M1117.147 399.335v4.877c0 1.353 0 1.353 1.324 1.551v1.378c-1.831.624-2.972.147-3.29-1.459-.176.149-.323.262-.458.388a5.494 5.494 0 0 1-4.761 1.377 3.368 3.368 0 0 1-2.973-3.248 3.436 3.436 0 0 1 2.641-3.8 34.012 34.012 0 0 1 4.146-.625c.595-.073 1.1-.185 1.252-.861a1.785 1.785 0 0 0-.5-1.945c-.91-.758-3.224-.858-4.086-.066a8.689 8.689 0 0 0-1.135 1.744h-1.624a3.364 3.364 0 0 1 2.279-3.587 7.323 7.323 0 0 1 5.164.033 2.952 2.952 0 0 1 2.021 2.976v1.269m-7.943 4.9a1.762 1.762 0 0 0 1.825 1.513 4.212 4.212 0 0 0 2.718-.677 2.585 2.585 0 0 0 1.314-1.971c.048-.633.009-1.273.009-1.92-1.483.255-2.933.431-4.341.769-1.27.303-1.629.917-1.529 2.286z" transform="translate(-971.603 -360.447)" style="fill:#f5f9fa"/>
        <path data-name="Path 30934" d="M1302.438 394.619a2.2 2.2 0 0 0 .26.076c.666.275 1.244.534 1.824.794 0 0 .028-.046.02.019a4.216 4.216 0 0 1 1.208 2.988c.021 2.893 0 5.786-.009 8.679h-2.03c-.019-.229-.043-.4-.043-.568q-.006-3.271-.006-6.542c0-.334 0-.668-.014-1-.045-1-.272-1.969-1.3-2.362a2.987 2.987 0 0 0-3.229.558 3.674 3.674 0 0 0-1.153 2.576c0 2.223.01 4.33.02 6.437a2.314 2.314 0 0 0-.036.25 1.418 1.418 0 0 0 .047.28c-.178.115-.347.313-.535.33-.507.046-1.021.016-1.6.016v-12.159a18.2 18.2 0 0 1 1.9.067c.047.511.047.954.047 1.516l.956-1.05s0-.017.05-.029c.318-.193.587-.374.855-.556h.038c.592-.12 1.124-.244 1.656-.369.143.012.288.024.535.04s.395.009.539.009z" transform="translate(-1135.243 -360.421)" style="fill:#f3f7f9"/>
        <path data-name="Path 30935" d="M1201.613 378.075c.012-.169.026-.339.041-.574h-1.6v-1.785c.368 0 .736-.018 1.1 0 .414.026.536-.151.525-.551-.024-.91-.008-1.821-.008-2.8h2.072v3.32h1.9v1.773h-1.881V379q0 3.005.008 6.011c0 1.03.2 1.223 1.252 1.23h.634v1.69a16.542 16.542 0 0 1-1.841.126c-1.255-.047-1.815-.579-2.129-1.986-.021-.79-.027-1.476-.032-2.162q-.019-2.916-.041-5.834z" transform="translate(-1052.232 -341.188)" style="fill:#f3f7f9"/>
        <path data-name="Path 30936" d="M839.113 411.966a15.487 15.487 0 0 1-1.6-.073c-.068-1.688-.068-3.318-.068-4.98h-4.982l-.018-.064c-.03-.55-.045-1.05-.06-1.55a.48.48 0 0 1 .13-.126c1.511-.041 2.947-.031 4.383-.047.157 0 .312-.151.479-.294.009-1.582.007-3.1.005-4.621.031-.008.061-.017.175-.041a2.523 2.523 0 0 0 .251-.077c.321.016.642.032 1.073.06a1.175 1.175 0 0 1 .269.656c.027 1.363.033 2.727.035 4.144a1.388 1.388 0 0 0 .591.179c1.48.028 2.96.04 4.44.058a16.083 16.083 0 0 1-.061 1.63c-1.69.069-3.321.069-5.038.069z" transform="translate(-733.708 -365.205)" style="fill:#f8fcfc"/>
        <path data-name="Path 30937" d="M1257.13 406.594v-8.857h2.089v12.1h-2.089z" transform="translate(-1101.681 -363.161)" style="fill:#f5f9fa"/>
        <path data-name="Path 30938" d="M169 141.039c.581-.034 1.16-.038 1.739-.038h175.984a4.113 4.113 0 0 1 .826.087c.031.045.032.045-.028.045H169v-.094z" transform="translate(-159.003 -140.744)" style="fill:#174577"/>
        <path data-name="Path 30939" d="M169 142.031q89.231-.05 178.523-.034c.06.022.06.045 0 .1q-89.323.049-178.522.032z" transform="translate(-159.003 -141.607)" style="fill:#00194c"/>
        <path data-name="Path 30940" d="M169.238 143.046q89.182-.066 178.49-.042a3.621 3.621 0 0 1-.755.127q-65.663.008-131.328.005h-45.648a3.517 3.517 0 0 1-.759-.09z" transform="translate(-159.208 -142.479)" style="fill:#1a4473"/>
        <path data-name="Path 30941" d="M603.091 225.163c0-.534-.013-1.068-.013-1.6v-70.527c0-.2 0-.4.024-.66.084-.036.149-.012.225.105q.016 36.435.012 72.682h-.128a.632.632 0 0 0-.12 0z" transform="translate(-535.055 -150.584)" style="fill:#001c4a"/>
        <path data-name="Path 30942" d="M103.216 183.012a11.617 11.617 0 0 0-1.152 5.2q.018 27.219.025 54.438a20.559 20.559 0 0 0 .429 2.872 3.7 3.7 0 0 1-.707-1.235 11.8 11.8 0 0 1-.03-2.066v-55.666c.308-1.094.6-2.131.938-3.154.051-.163.291-.262.497-.389z" transform="translate(-100.739 -177.14)" style="fill:#142f52"/>
        <path data-name="Path 30943" d="M156.2 696.877c.631.043 1.262.124 1.892.124q28.648.013 57.344.079a1.961 1.961 0 0 1-.828.21q-28.416.011-56.833.007c-.575-.1-1.149-.2-1.734-.352-.01-.051-.009-.052.033-.054.073-.006.101-.01.126-.014z" transform="translate(-147.773 -622.316)" style="fill:#142f52"/>
        <path data-name="Path 30944" d="M226.877 146.326a4.29 4.29 0 0 1-.862.089q-28.444 0-56.948-.041a.168.168 0 0 1-.063-.142c0-.032 0-.1.063-.1q28.524 0 56.922-.006a4.479 4.479 0 0 0 .758-.129 2.736 2.736 0 0 1 .13.329z" transform="translate(-159.007 -145.075)" style="fill:#001e4a"/>
        <path data-name="Path 30945" d="M606.107 225.718a.121.121 0 0 1-.1-.062q-.052-36.389-.036-72.655c.023 0 .046 0 .1.063q.054 36.389.036 72.654z" transform="translate(-537.564 -151.14)" style="fill:#00194c"/>
        <path data-name="Path 30946" d="M607.041 226.084q-.059-36.237-.039-72.615a2.47 2.47 0 0 1 .128.63q.009 35.644 0 71.287a3.127 3.127 0 0 1-.089.698z" transform="translate(-538.456 -151.546)" style="fill:#174577"/>
        <path data-name="Path 30947" d="M605.132 153.01q.046 36.294.033 72.653c0 .062-.064.062-.1.062q-.049-36.294-.03-72.649c.008-.06.065-.065.097-.066z" transform="translate(-536.754 -151.148)" style="fill:#174577"/>
        <path data-name="Path 30948" d="M169.338 697.408q28.359-.059 56.795-.046a2.88 2.88 0 0 0 .889-.194 1 1 0 0 1 .275-.177.229.229 0 0 1 .121-.03c.068.393-.078.581-.5.544-.331-.029-.667-.006-1-.006h-55.747a4.479 4.479 0 0 1-.833-.091z" transform="translate(-159.295 -622.388)" style="fill:#1e406a"/>
        <path data-name="Path 30949" d="M219.783 146a3.016 3.016 0 0 1-.7.129c-18.953.006-37.906.005-56.968 0h-1.083a4.481 4.481 0 0 1 .758-.128l57.993-.001z" transform="translate(-152.105 -145.075)" style="fill:#133d6f"/>
        <path data-name="Path 30950" d="M1259.406 363.218v2.082h-2.1v-2.418c.709.092 1.404.183 2.1.336z" transform="translate(-1101.838 -332.966)" style="fill:#f3f7f9"/>
        <path data-name="Path 30951" d="M1361.889 413.262c-.037-2.894-.013-5.787-.035-8.68a4.085 4.085 0 0 0-1.224-2.967c.66-.1.86.2 1.138 1a12.537 12.537 0 0 1 .381 4.128c.006 1.134-.018 2.269.007 3.4.021.988.09 1.976.135 2.931a4.067 4.067 0 0 1-.402.188z" transform="translate(-1191.346 -366.505)" style="fill:#142f52"/>
        <path data-name="Path 30952" d="M833.075 451.163c1.6-.052 3.217-.052 4.967-.052 0 1.662 0 3.291.01 4.981-.121-.147-.361-.354-.364-.563-.016-1.062.048-2.126.048-3.189 0-.691-.328-.975-1.038-.977-1 0-2 .008-3-.007a1.6 1.6 0 0 1-.623-.193z" transform="translate(-734.31 -409.402)" style="fill:#142f52"/>
        <path data-name="Path 30953" d="M882.8 455.942c-.056-1.655-.056-3.315-.056-5.072 1.717 0 3.349 0 5.041-.009-.122.088-.3.266-.488.27-1.374.024-2.748.013-4.2.013-.016.235-.049.491-.05.747 0 1.134.01 2.268-.007 3.4a1.5 1.5 0 0 1-.24.651z" transform="translate(-777.343 -409.185)" style="fill:#001c4a"/>
        <path data-name="Path 30954" d="M988.981 362.66c-.011.51-.052.974-.052 1.438 0 4.971 0 9.942-.02 14.975a1.215 1.215 0 0 1-.184-.543q-.014-7.753 0-15.505c.005-.125-.225-.516.256-.365z" transform="translate(-869.109 -332.744)" style="fill:#001c4a"/>
        <path data-name="Path 30955" d="M1210.212 415.159c.064 1.929.079 3.873.094 5.818.005.686.011 1.372.005 2.119-.1-.065-.267-.192-.269-.32a790.627 790.627 0 0 1 0-7.386c-.002-.071.078-.143.17-.231z" transform="translate(-1060.88 -378.256)" style="fill:#001c4a"/>
        <path data-name="Path 30956" d="M117.756 152.664a10.3 10.3 0 0 0-4.734 3.99c-.26-.6.169-1.027.536-1.349a37.494 37.494 0 0 1 2.98-2.336 3 3 0 0 1 1.218-.305z" transform="translate(-110.438 -150.848)" style="fill:#142f52"/>
        <path data-name="Path 30957" d="M1009.007 435.305c1.928 0 3.855.01 5.831.041.024.068 0 .11-.123.17-1.968.018-3.842.017-5.714.016v-.036c-.001-.09.004-.14.006-.191z" transform="translate(-886.72 -395.708)" style="fill:#001c4a"/>
        <path data-name="Path 30958" d="M881.668 403.076c-.013-1.363-.019-2.727-.046-4.09a1.87 1.87 0 0 0-.212-.677c.011-.36.172-.442.33-.116a1.887 1.887 0 0 1 .143.775c.015 1-.025 2.006.024 3.006a7.647 7.647 0 0 0 .324 1.042 2.277 2.277 0 0 1-.563.06z" transform="translate(-776.184 -363.38)" style="fill:#142f52"/>
        <path data-name="Path 30959" d="M883.254 436.014a2.137 2.137 0 0 1 .584-.066c1.3 0 2.545-.007 3.791.013a1.527 1.527 0 0 1 .649.234c-1.473.038-2.953.025-4.433 0a1.387 1.387 0 0 1-.591-.181z" transform="translate(-777.781 -396.265)" style="fill:#001437"/>
        <path data-name="Path 30960" d="M838.287 435.975c-.156.081-.311.231-.468.233-1.436.016-2.872.005-4.371 0a1.267 1.267 0 0 1 .555-.224c1.223-.021 2.447-.01 3.787-.008h.454a.3.3 0 0 0 .043-.001z" transform="translate(-734.633 -396.285)" style="fill:#001437"/>
        <path data-name="Path 30961" d="M868.224 405.717c-.011.062-.04.062-.064.02a9.18 9.18 0 0 0-.165-.228c0-1.256-.009-2.513 0-3.769a1.674 1.674 0 0 1 .182-.625c.055 1.501.057 3.021.047 4.602z" transform="translate(-764.559 -366.089)" style="fill:#001c3f"/>
        <path data-name="Path 30962" d="M1349.094 394.15a18.07 18.07 0 0 1-1.794-.746c.2-.479.607-.267.936-.243a2.491 2.491 0 0 1 .731.3l.141-.145c0 .259 0 .517-.014.834z" transform="translate(-1179.8 -359.139)" style="fill:#142f52"/>
        <path data-name="Path 30963" d="M1311.691 440.708a207.037 207.037 0 0 1-.057-6.347.563.563 0 0 1 .171.349c.011 1.9.008 3.809 0 5.714a.6.6 0 0 1-.114.284z" transform="translate(-1148.897 -394.89)" style="fill:#001e4a"/>
        <path data-name="Path 30964" d="M1008.99 437h5.684a.455.455 0 0 1-.326.221c-1.613-.057-3.141-.068-4.669-.1a4.135 4.135 0 0 1-.689-.121z" transform="translate(-886.71 -397.174)" style="fill:#1a4473"/>
        <path data-name="Path 30965" d="M1008.158 437a4.132 4.132 0 0 0 .687.128c1.528.028 3.056.04 4.623.1-1.541.04-3.119.031-4.7.047a2.194 2.194 0 0 0-.7.226.74.74 0 0 1-.027-.446.158.158 0 0 1 .111-.052z" transform="translate(-885.878 -397.177)" style="fill:#00194c"/>
        <path data-name="Path 30966" d="M1311.308 398.15a11.247 11.247 0 0 1-.908 1.075c0-.562 0-1.005.006-1.492.29-.171.29-.171.407.363a4.352 4.352 0 0 1 .495.054z" transform="translate(-1147.831 -363.071)" style="fill:#142f52"/>
        <path data-name="Path 30967" d="M138.468 689.467a14.622 14.622 0 0 1 1.546.633c-.029.047-.117.1-.154.073-.484-.329-.949-.11-1.471.033a3.9 3.9 0 0 1 .079-.739z" transform="translate(-132.482 -615.896)" style="fill:#1e406a"/>
        <path data-name="Path 30968" d="M1326.3 393.356a15.843 15.843 0 0 1-1.629.421c.229-.528.852-.704 1.629-.421z" transform="translate(-1160.195 -359.25)" style="fill:#142f52"/>
        <path data-name="Path 30969" d="M830.05 439.163c.058.483.073.983.1 1.536-.634 0-.331-.5-.352-.8a1.675 1.675 0 0 1 .252-.736z" transform="translate(-731.42 -399.051)" style="fill:#142f52"/>
        <path data-name="Path 30970" d="M1318.627 397.093a5.417 5.417 0 0 1-.792.57c-.125-.634.299-.617.792-.57z" transform="translate(-1154.253 -362.586)" style="fill:#142f52"/>
        <path data-name="Path 30971" d="M158.666 147.109a.242.242 0 0 1 .233.006.87.87 0 0 1 .051.3 7.13 7.13 0 0 1-.629.122 2.841 2.841 0 0 1 .345-.428z" transform="translate(-149.751 -146.013)" style="fill:#1e406a"/>
        <path data-name="Path 30972" d="M150.822 150.09a2.013 2.013 0 0 1-.544.232.352.352 0 0 1-.08-.309 1.062 1.062 0 0 1 .357-.055 1.185 1.185 0 0 1 .267.132z" transform="translate(-142.706 -148.504)" style="fill:#142f52"/>
        <path data-name="Path 30973" d="M1341.865 394.517a1.206 1.206 0 0 1-.474.027 1.206 1.206 0 0 1 .474-.027z" transform="translate(-1174.68 -360.363)" style="fill:#142f52"/>
        <path data-name="Path 30974" d="M866.57 434.036a.531.531 0 0 1 .194.219.937.937 0 0 1-.367.045.435.435 0 0 1 .173-.264z" transform="translate(-763.177 -394.609)" style="fill:#142f52"/>
        <path data-name="Path 30975" d="M153.08 695.437a.466.466 0 0 1 .357.059.315.315 0 0 1 .035.136 1.752 1.752 0 0 1-.392-.195z" transform="translate(-145.209 -621.056)" style="fill:#142f52"/>
        <path data-name="Path 30976" d="M871.568 399.9a.286.286 0 0 1-.2.075.286.286 0 0 1 .2-.075z" transform="translate(-767.483 -365.035)" style="fill:#142f52"/>
        <path data-name="Path 30977" d="M150.705 149.694a.807.807 0 0 1-.316.037.8.8 0 0 1 .316-.037z" transform="translate(-142.879 -148.272)" style="fill:#1e406a"/>
        <path data-name="Path 30978" d="M162.27 703.223c-.011-.038 0-.09.029-.1s.065.03.1.047a.4.4 0 0 1-.129.053z" transform="translate(-153.168 -627.726)" style="fill:#1e406a"/>
        <path data-name="Path 30979" d="M606 698.844a.208.208 0 0 1-.018-.132l.095.029a.267.267 0 0 1-.077.103z" transform="translate(-537.572 -623.906)" style="fill:#1e406a"/>
        <path data-name="Path 30980" d="M1311.644 484.485c-.052-.043-.068-.108-.065-.22a.25.25 0 0 1 .065.22z" transform="translate(-1148.85 -438.124)" style="fill:#001e4a"/>
        <path data-name="Path 30981" d="M108.141 656a1.57 1.57 0 0 1 .305.592 1 1 0 0 0 .224.346 4.534 4.534 0 0 1 .464.831.928.928 0 0 1-.308.237c-.175-.279.038-.833-.623-.8a2.523 2.523 0 0 1-.18-.737.968.968 0 0 1 .118-.469z" transform="translate(-106.175 -586.903)" style="fill:#142f52"/>
        <path data-name="Path 30982" d="M118.374 675.24a10.79 10.79 0 0 1 1.085.973 5.943 5.943 0 0 1-1.112.078.366.366 0 0 1-.272-.2 4.091 4.091 0 0 1-.108-.659 2.235 2.235 0 0 0 .407-.192z" transform="translate(-114.79 -603.572)" style="fill:#1e406a"/>
        <path data-name="Path 30983" d="M129.1 683.162a11.141 11.141 0 0 1 1.226.717 11.417 11.417 0 0 1-1.153.037c-.025-.249-.05-.478-.073-.754z" transform="translate(-124.437 -610.434)" style="fill:#1e406a"/>
        <path data-name="Path 30984" d="M114.036 669.8a2.478 2.478 0 0 1 .314-.241 3.5 3.5 0 0 1 .621.673 4.339 4.339 0 0 1-.935-.432z" transform="translate(-111.386 -598.648)" style="fill:#1e406a"/>
        <path data-name="Path 30985" d="M123.374 684.01a.565.565 0 0 1 0-.208l.15.08a.352.352 0 0 1-.15.128z" transform="translate(-119.466 -610.99)" style="fill:#1e406a"/>
        <path data-name="Path 30986" d="M298.836 176.2c.691-.892 1.35-1.749 2.005-2.6.568.21.745.473.566 1.075a2.837 2.837 0 0 0 1.218 3.462c3.022 2.14 6.029 4.313 8.906 6.642a8.072 8.072 0 0 1 3.286 6.949 8.534 8.534 0 0 1-1.6 4.382c-1.827 2.641-3.727 5.233-5.6 7.843-.1.141-.218.269-.338.415l-.684-.454a11.866 11.866 0 0 0 .568-1.27 4.085 4.085 0 0 0-1.658-5.026c-2.088-1.573-4.25-3.048-6.345-4.611a11.079 11.079 0 0 1-3.942-4.319 8.065 8.065 0 0 1 .228-7.2c.968-1.833 2.228-3.509 3.39-5.288z" transform="translate(-267.713 -168.985)" style="fill:#0b3460"/>
        <path data-name="Path 30987" d="M280.554 327.665c.972.8 1.966 1.52 2.827 2.37a5.3 5.3 0 0 1 1.123 6.186 21.027 21.027 0 0 1-2.645 3.968c-.333.495-.692.972-1.067 1.5a2.178 2.178 0 0 1-.647-.251.655.655 0 0 1-.229-.534 1.513 1.513 0 0 0-.563-1.822c-1.854-1.331-3.725-2.641-5.548-4.013-1.7-1.279-2.928-2.867-2.8-5.148a7.9 7.9 0 0 1 1.562-4.052c.681-.985 1.441-1.917 2.194-2.85.611-.758.63-.743 1.414-.08-.432.89-.36 1.369.529 2.038 1.238.923 2.538 1.776 3.85 2.688z" transform="translate(-247.365 -297.934)" style="fill:#0c3461"/>
        <path data-name="Path 30988" d="M400.594 565.1c-.016-.175-.046-.35-.047-.525V550.775c2.2 0 4.339-.051 6.47.022a12.289 12.289 0 0 1 3 .5 3.02 3.02 0 0 1 2.3 2.572 3.694 3.694 0 0 1-1.268 3.536c-.13.109-.27.206-.462.351a2.316 2.316 0 0 0 .271.148 3.055 3.055 0 0 1 2.2 3.07 3.651 3.651 0 0 1-2.109 3.683 9.683 9.683 0 0 1-2.417.611 2.165 2.165 0 0 0-.7-.169c-2.41-.007-4.821 0-7.231 0m9.192-3.639c.142-1.4-.181-1.842-1.582-1.944-1.063-.077-2.136-.031-3.2-.038h-1.345v3.13c1.523 0 2.99.036 4.453-.016a1.692 1.692 0 0 0 1.677-1.132m-1.026-7.389a2.942 2.942 0 0 0-.959-.416c-1.349-.047-2.7-.02-4.082-.02v2.982c1.335 0 2.631.086 3.909-.023 1.392-.115 1.88-1.211 1.122-2.518z" transform="translate(-359.595 -495.736)" style="fill:#0d3461"/>
        <path data-name="Path 30989" d="M296.6 565.107a4.24 4.24 0 0 1-.048-.457v-13.218c0-.2.018-.395.029-.633.227-.011.422-.03.616-.027 2.466.045 4.934.042 7.4.163a4.036 4.036 0 0 1 2.952 1.33 3.706 3.706 0 0 1-.932 5.489 2.025 2.025 0 0 0 .325.193c1.958.695 2.411 2.421 2.022 4.17-.422 1.9-1.9 2.978-4.3 3.159a1.9 1.9 0 0 0-.632-.165q-3.713-.01-7.426 0m3.172-11.478v2.96c1.38 0 2.735.082 4.076-.026a1.417 1.417 0 0 0 1.143-2.113c-.182-.335-.6-.543-.92-.92-.081-.06-.161-.172-.243-.173q-1.876-.019-3.753-.006c-.082 0-.164.11-.3.278m.794 5.857h-.915v3.067c1.641 0 3.235.005 4.827-.008a1.339 1.339 0 0 0 .5-.17 1.4 1.4 0 0 0 .836-1.682 1.133 1.133 0 0 0-1.187-1.107c-1.316-.06-2.628-.073-4.069-.104z" transform="translate(-269.501 -495.742)" style="fill:#0d3361"/>
        <path data-name="Path 30990" d="M249.946 485.884c-.186-.154-.472-.272-.541-.467a52.79 52.79 0 0 1-.962-3.046.679.679 0 0 0-.789-.588c-2.024.033-4.049.014-6.209.014l1.055-2.911h1.286c7.548 0 15.1.012 22.645-.019.775 0 1.177.2 1.335.972.128.62.359 1.219.57 1.908h-6.555l-1.248 4.182a5.091 5.091 0 0 1-.944-.067.9.9 0 0 0-.381-.156q-4.406-.007-8.812 0a1.4 1.4 0 0 0-.45.178z" transform="translate(-221.764 -433.447)" style="fill:#0c3561"/>
        <path data-name="Path 30991" d="M205.056 562.453a.61.61 0 0 1-.091.267.865.865 0 0 0-.106.321.1.1 0 0 0-.059-.021 4.293 4.293 0 0 0-.728.665 4.078 4.078 0 0 1-2.281 1.419 8.139 8.139 0 0 1-2.045.162c-2 .019-4.006-.017-6.008.021-.659.013-.828-.217-.824-.847.023-4.161.009-8.322.018-12.483a7.587 7.587 0 0 1 .127-.982c1.7-.01 3.4-.02 5.162.031a12.768 12.768 0 0 0 1.763.224 4.48 4.48 0 0 0 .825-.109 2.527 2.527 0 0 1 .416.066.38.38 0 0 0 .114.039h.043a3.538 3.538 0 0 1 3.032 2.507 3.73 3.73 0 0 1-1.484 4.069c-.048.028-.068.1-.1.254a1.806 1.806 0 0 0 .559.484c.435.226.864.439.823 1.039a.215.215 0 0 0 .055.168c.886.549.719 1.381.621 2.209-.019.157.109.332.17.5m-4.617-5.84a1.364 1.364 0 0 0 .876-1.474 1.154 1.154 0 0 0-1.008-1.229c-1.463-.1-2.937-.032-4.448-.032 0 .861-.012 1.746.013 2.63 0 .133.174.261.3.488.014.017.028.049.042.049 1.3.025 2.6.056 3.9.052.1 0 .191-.26.326-.483m-.305 6.195a6.869 6.869 0 0 0 .845-.181 1.413 1.413 0 0 0 1.032-1.633c-.062-.779-.328-1.12-1.222-1.229a27 27 0 0 0-2.728-.106c-.745-.015-1.491 0-2.23 0v3.156c1.425-.007 2.802-.007 4.299-.012z" transform="translate(-179.72 -495.91)" style="fill:#0c3461"/>
        <path data-name="Path 30992" d="M191.84 550.934c.009.34-.073.668-.073 1-.009 4.161.005 8.322-.018 12.483 0 .629.165.859.824.847 2-.038 4.005 0 6.008-.021a8.139 8.139 0 0 0 2.045-.162 4.078 4.078 0 0 0 2.281-1.419 3.639 3.639 0 0 1 .743-.658 3.351 3.351 0 0 1-2.364 2.114 8.115 8.115 0 0 1-2.279.4c-2.357.051-4.716.02-7.074.018a2.747 2.747 0 0 1-.364-.055v-.873q0-6.54.008-13.08a1.186 1.186 0 0 1 .263-.594z" transform="translate(-178.553 -495.882)" style="fill:#142f52"/>
        <path data-name="Path 30993" d="M305.489 530.2a.683.683 0 0 1 .39-.19q4.406-.015 8.812 0a.681.681 0 0 1 .327.133c-3.142.05-6.305.057-9.529.057z" transform="translate(-277.245 -477.747)" style="fill:#001c3f"/>
        <path data-name="Path 30994" d="M296.894 658.084c2.48-.06 4.955-.062 7.431-.056a1.613 1.613 0 0 1 .579.151c-1.464.072-2.948.1-4.433.12q-1.5.017-3 0a1.237 1.237 0 0 1-.577-.215z" transform="translate(-269.802 -588.658)" style="fill:#001c4a"/>
        <path data-name="Path 30995" d="M400.842 658.053c2.42-.036 4.831-.039 7.241-.032a1.9 1.9 0 0 1 .643.154c-1.505.072-3.029.1-4.554.118-1.018.01-2.035 0-3.128-.043a.455.455 0 0 0-.177-.1.183.183 0 0 1-.025-.097z" transform="translate(-359.854 -588.651)" style="fill:#001e4a"/>
        <path data-name="Path 30996" d="M503.018 649.531a4.672 4.672 0 0 1-.594-.575l-.156.749-.2-.026.113-1.714.231-.038c.078.157.164.31.232.472.076.181.135.37.23.635l.478-1.081a1.76 1.76 0 0 1 .21 1.779c-.047-.17-.088-.288-.11-.409a.877.877 0 0 0-.151-.429c-.085.198-.171.397-.283.637z" transform="translate(-447.55 -579.909)" style="fill:#4f5c6b"/>
        <path data-name="Path 30997" d="M269.333 608.646a.735.735 0 0 1-.2-.455c.1-.828.265-1.66-.621-2.209a.215.215 0 0 1-.055-.168c.041-.6-.388-.813-.823-1.038a2.555 2.555 0 0 1-.561-.437c1.906.452 2.739 2.014 2.26 4.307z" transform="translate(-243.963 -542.147)" style="fill:#142f52"/>
        <path data-name="Path 30998" d="M493.782 647.863c.024.154.06.331.162.387.333.183.593.444.339.777-.154.2-.537.229-.817.335l-.081-.239.668-.211c-.107-.477-.975-.525-.574-1.133.114-.173.461-.192.7-.281l.07.227a4.2 4.2 0 0 0-.467.138z" transform="translate(-440.016 -579.538)" style="fill:#4f5c6b"/>
        <path data-name="Path 30999" d="M235.541 551.445a2.606 2.606 0 0 1-.772.128 13.125 13.125 0 0 1-1.7-.208c.8-.011 1.61.025 2.472.08z" transform="translate(-214.506 -496.253)" style="fill:#142f52"/>
        <path data-name="Path 31000" d="M165.019 147a.811.811 0 0 1 .239.033c.142.054.217.076.292.1v.1a.914.914 0 0 1-.5.064.773.773 0 0 1-.031-.297z" transform="translate(-155.553 -145.941)" style="fill:#1e406a"/>
        <path data-name="Path 31001" d="M163.2 147a.524.524 0 0 1 .039.279.294.294 0 0 1-.216.079.7.7 0 0 1-.052-.314.355.355 0 0 1 .229-.044z" transform="translate(-153.778 -145.939)" style="fill:#093360"/>
        <path data-name="Path 31002" d="M111.422 661a.6.6 0 0 1-.222-.262.6.6 0 0 1 .222.262z" transform="translate(-108.928 -591.007)" style="fill:#1e406a"/>
        <path data-name="Path 31003" d="M282.467 639.463a.421.421 0 0 1 .04-.262.421.421 0 0 1-.04.262z" transform="translate(-257.295 -572.351)" style="fill:#142f52"/>
        <path data-name="Path 31004" d="M156.055 696.207c-.042-.023-.042-.049-.042-.112.048-.018.094 0 .154.06-.014.045-.042.045-.112.052z" transform="translate(-147.751 -621.633)" style="fill:#1e406a"/>
        <path data-name="Path 31005" d="M255.545 552.622c.018.017-.025.019-.025.019a.634.634 0 0 1-.064-.009c.004-.032.034-.043.089-.01z" transform="translate(-233.901 -497.325)" style="fill:#142f52"/>
        <path data-name="Path 31006" d="M401.019 659.21c.043-.032.077-.013.117.045-.03.016-.074.005-.117-.045z" transform="translate(-360.006 -589.671)" style="fill:#0d3461"/>
        <path data-name="Path 31007" d="M1010.17 378.157c1.247.006 2.43-.023 3.608.027a2.33 2.33 0 0 1 2.386 1.656 2.894 2.894 0 0 1-.787 3.277 4.907 4.907 0 0 1-2.247.649c-1.754.092-3.517.029-5.316.029a2.987 2.987 0 0 1-.076-.458c0-1.537.015-3.074-.009-4.611-.008-.447.136-.6.572-.576.599.027 1.199.007 1.869.007z" transform="translate(-885.617 -346.192)" style="fill:#0d3461"/>
        <path data-name="Path 31008" d="M1008.328 435.483c0 .038-.067.038-.1.037a.272.272 0 0 1 .063-.229.261.261 0 0 1 .037.192z" transform="translate(-886.047 -395.697)" style="fill:#1e406a"/>
        <path data-name="Path 31009" d="M1404.371 410.4a2.95 2.95 0 0 1 3.135-1.507 2.66 2.66 0 0 1 2.35 1.9 7.615 7.615 0 0 1 .1 5.347 3.137 3.137 0 0 1-2.787 1.924 2.857 2.857 0 0 1-2.82-1.824 7.837 7.837 0 0 1 .022-5.84z" transform="translate(-1228.741 -372.806)" style="fill:#0d3461"/>
        <path data-name="Path 31010" d="m749.377 389.545 1.648-4.678c.258-.725.527-1.446.855-2.343.808 2.408 1.556 4.637 2.242 6.931-1.622.073-3.184.081-4.745.09z" transform="translate(-661.801 -349.982)" style="fill:#103562"/>
        <path data-name="Path 31011" d="M749.253 434.812c1.578-.061 3.139-.069 4.765-.091.065-.013.071-.008.051.033a1.279 1.279 0 0 0-.039.212c-1.508.011-3.016.025-4.525.028-.089.006-.179-.084-.252-.182z" transform="translate(-661.692 -395.198)" style="fill:#001c3f"/>
        <path data-name="Path 31012" d="M785.14 435.256a.275.275 0 0 1 0-.217.275.275 0 0 1 0 .217z" transform="translate(-692.763 -395.478)" style="fill:#103562"/>
        <path data-name="Path 31013" d="M1123.471 446.816c-.092-1.315.262-1.929 1.531-2.234 1.409-.338 2.858-.513 4.342-.769 0 .648.039 1.287-.009 1.92a2.584 2.584 0 0 1-1.314 1.971 4.213 4.213 0 0 1-2.718.677 1.774 1.774 0 0 1-1.832-1.565z" transform="translate(-985.876 -403.081)" style="fill:#103562"/>
        <path data-name="Path 31014" d="M167.389 147.1a.4.4 0 0 1-.249-.065c.037-.033.1-.033.2-.032.05-.003.049.066.049.097z" transform="translate(-157.391 -145.944)" style="fill:#093360"/>
        <path data-name="Path 31015" d="M429.938 617.958a1.7 1.7 0 0 1-1.668 1.079c-1.464.051-2.931.016-4.453.016v-3.13h1.345c1.068.007 2.141-.039 3.2.038 1.403.102 1.726.547 1.576 1.997z" transform="translate(-379.757 -552.176)" style="fill:#f5f9fa"/>
        <path data-name="Path 31016" d="M429.367 572.679c.724 1.268.237 2.365-1.166 2.484-1.279.109-2.574.023-3.909.023V572.2c1.382 0 2.733-.027 4.082.02a2.758 2.758 0 0 1 .993.459z" transform="translate(-380.169 -514.301)" style="fill:#f8fcfc"/>
        <path data-name="Path 31017" d="M320.739 615.964c1.376.031 2.688.044 4 .1a1.133 1.133 0 0 1 1.187 1.107 1.4 1.4 0 0 1-.836 1.682 1.34 1.34 0 0 1-.5.17c-1.593.013-3.186.008-4.828.008v-3.067z" transform="translate(-289.608 -552.219)" style="fill:#f5f9fa"/>
        <path data-name="Path 31018" d="M324.975 571.9c.308.266.723.474.9.809a1.417 1.417 0 0 1-1.143 2.113c-1.341.108-2.7.026-4.076.026 0-.944 0-1.952.088-3 1.472-.009 2.856.02 4.231.052z" transform="translate(-290.389 -513.997)" style="fill:#f8fcfc"/>
        <path data-name="Path 31019" d="M325.721 570.262a79.94 79.94 0 0 1-4.19-.048c.022-.075.1-.185.187-.185q1.876-.014 3.753.006c.081 0 .161.112.25.227z" transform="translate(-291.144 -512.418)" style="fill:#001c3f"/>
        <path data-name="Path 31020" d="M218.986 619.089h-4.242v-3.156c.739 0 1.485-.012 2.23 0a27.052 27.052 0 0 1 2.728.106c.893.109 1.159.45 1.222 1.229a1.413 1.413 0 0 1-1.032 1.633 6.231 6.231 0 0 1-.906.188z" transform="translate(-198.632 -552.189)" style="fill:#f5f9fa"/>
        <path data-name="Path 31021" d="M215.218 575.616c-.093-.13-.264-.258-.267-.391-.024-.883-.013-1.768-.013-2.63 1.511 0 2.985-.065 4.448.032a1.154 1.154 0 0 1 1.008 1.229 1.439 1.439 0 0 1-.94 1.527c-1.454.117-2.846.174-4.236.233z" transform="translate(-198.796 -514.629)" style="fill:#f8fcfc"/>
        <path data-name="Path 31022" d="M217.173 594.151c1.374-.108 2.765-.167 4.2-.238-.051.128-.146.388-.242.388-1.3 0-2.6-.027-3.9-.052-.014 0-.031-.032-.058-.098z" transform="translate(-200.735 -533.115)" style="fill:#001c3f"/>
    </g>
</svg>
