<svg xmlns="http://www.w3.org/2000/svg" width="57.246" height="57.249" viewBox="0 0 57.246 57.249">
    <g data-name="discount (1)">
        <path data-name="Path 31023" d="m54.626 28.626 2.512-6.551a1.791 1.791 0 0 0-.544-2.032l-5.445-4.415-1.1-6.93a1.788 1.788 0 0 0-1.488-1.485l-6.93-1.1L37.217.662a1.792 1.792 0 0 0-2.029-.544l-6.554 2.515L22.083.122a1.784 1.784 0 0 0-2.029.544l-4.415 5.448-6.93 1.1A1.793 1.793 0 0 0 7.224 8.7l-1.1 6.93-5.451 4.416a1.79 1.79 0 0 0-.543 2.029l2.512 6.551L.13 35.177a1.784 1.784 0 0 0 .544 2.029l5.449 4.411 1.1 6.93a1.788 1.788 0 0 0 1.485 1.488l6.93 1.1 4.415 5.445a1.78 1.78 0 0 0 2.032.544l6.547-2.508 6.551 2.512a1.79 1.79 0 0 0 2.032-.547l4.411-5.445 6.93-1.1a1.792 1.792 0 0 0 1.488-1.488l1.1-6.93 5.445-4.411a1.786 1.786 0 0 0 .544-2.029z" transform="translate(-.01)" style="fill:#03256c"/>
        <g data-name="Group 2737">
            <path data-name="Path 31024" d="M165.389 138.768a5.367 5.367 0 1 1 5.367-5.367 5.373 5.373 0 0 1-5.367 5.367zm0-7.156a1.789 1.789 0 1 0 1.789 1.789 1.79 1.79 0 0 0-1.789-1.788z" transform="translate(-142.132 -113.72)" style="fill:#fafafa"/>
            <path data-name="Path 31025" d="M261.389 298.768a5.367 5.367 0 1 1 5.367-5.367 5.373 5.373 0 0 1-5.367 5.367zm0-7.156a1.789 1.789 0 1 0 1.789 1.789 1.794 1.794 0 0 0-1.789-1.788z" transform="translate(-227.399 -255.831)" style="fill:#fafafa"/>
            <path data-name="Path 31026" d="M161.824 156.641a1.789 1.789 0 0 1-1.453-2.83l17.889-25.044a1.789 1.789 0 0 1 2.912 2.079l-17.889 25.044a1.8 1.8 0 0 1-1.459.751z" transform="translate(-142.145 -113.704)" style="fill:#fafafa"/>
        </g>
    </g>
</svg>
