<svg data-name="Group 2709" xmlns="http://www.w3.org/2000/svg" width="86.2" height="33.341" viewBox="0 0 86.2 33.341">
    <path data-name="Path 30717" d="M835.42 597.569c1.024 0 2.042 0 3.059.011l4.083 7.877v-7.887h2.45v12.484h-2.693l-4.449-8.87v8.866h-2.45z" transform="translate(-802.194 -589.822)" style="fill-rule:evenodd;fill:#fff"/>
    <path data-name="Path 30718" d="M1459.428 655.511a4.8 4.8 0 1 1-4.8 4.794 4.794 4.794 0 0 1 4.8-4.794zm0 2.414a2.381 2.381 0 1 1-2.383 2.379 2.381 2.381 0 0 1 2.383-2.379z" transform="translate(-1388.982 -644.73)" style="fill-rule:evenodd;fill:#fff"/>
    <path data-name="Path 30719" d="M1037.838 655.511a4.8 4.8 0 1 1-4.8 4.794 4.795 4.795 0 0 1 4.8-4.794zm0 2.414a2.381 2.381 0 1 1-2.383 2.379 2.381 2.381 0 0 1 2.383-2.379z" transform="translate(-989.468 -644.73)" style="fill-rule:evenodd;fill:#fff"/>
    <path data-name="Path 30720" d="M1231.334 612.729v9.171h2.724v-4.326a2.726 2.726 0 0 1 .183-.986 3.1 3.1 0 0 1 1.408-1.784 1.16 1.16 0 0 1 .834-.215h1.714v4.966c.088 2.728 2.89 2.8 4.935 2.242l-.345-1.827c-1.169.271-2 .349-2-1.116v-4.266h1.967v-1.932h-1.9v-2.587h-2.172l-.623 2.587h-1.507a2.984 2.984 0 0 0-1.781.556 2.8 2.8 0 0 0-1.06 1.443q-.4-.945-.792-1.9l-1.587-.032z" transform="translate(-1177.378 -601.671)" style="fill-rule:evenodd;fill:#fff"/>
    <path data-name="Path 30721" d="M1650.706 656.67v9.264h2.583v-6.128c0-.859 2.066-1.626 2.928-.574a.78.78 0 0 1 .2.686v5.969h2.633v-6.381a3.326 3.326 0 0 0-.8-2 2.779 2.779 0 0 0-2.939-.94 4.751 4.751 0 0 0-2.489 1.542l-.549-1.418c-.524-.007-1.052-.014-1.577-.025z" transform="translate(-1574.791 -645.661)" style="fill-rule:evenodd;fill:#fff"/>
    <path data-name="Path 30722" d="M1810.271 659.692h.313v-.215h-.841v.215h.313v1h.215zm1.429-.215h-.31l-.183.954-.187-.954h-.317v1.211h.2v-1.01l.19 1.01h.211l.19-1.01v1.01h.2z" transform="translate(-1725.5 -648.489)" style="fill:#fff"/>
    <path data-name="Path 30723" d="M215.321 563.8a14.437 14.437 0 1 1 14.438-14.438 14.456 14.456 0 0 1-14.438 14.438zm0-24.307a9.866 9.866 0 1 0 6.983 2.89 9.829 9.829 0 0 0-6.983-2.89z" transform="translate(-200.883 -530.456)" style="fill:#f7b512"/>
    <path data-name="Rectangle 785" transform="translate(30.167 2.246)" style="fill:#f7b512" d="M0 0h1.126v1.123H0z"/>
    <path data-name="Rectangle 786" transform="translate(30.167)" style="fill:#f7b512" d="M0 0h1.126v1.126H0z"/>
    <path data-name="Rectangle 787" transform="translate(26.999 3.361)" style="fill:#f7b512" d="M0 0h1.052v1.098H0z"/>
    <path data-name="Rectangle 788" transform="translate(24.916 5.519)" style="fill:#141515" d="M0 0h1.059v1.052H0z"/>
    <path data-name="Rectangle 789" transform="translate(28.052 4.459)" style="fill:#141515" d="M0 0h1.179v1.059H0z"/>
    <path data-name="Rectangle 790" transform="translate(23.86 4.512)" style="fill:#141515" d="M0 0h1.056v1.007H0z"/>
    <path data-name="Rectangle 791" transform="translate(26.999 5.519)" style="fill:#141515" d="M0 0h1.052v1.052H0z"/>
    <path data-name="Rectangle 792" transform="translate(29.055 1.126)" style="fill:#141515" d="M0 0h1.112v1.119H0z"/>
    <path data-name="Rectangle 793" transform="translate(26.999 2.246)" style="fill:#141515" d="M0 0h2.055v1.116H0z"/>
    <path data-name="Rectangle 794" transform="translate(25.975 3.361)" style="fill:#141515" d="M0 0h1.024v2.158H0z"/>
    <path data-name="Path 30724" d="M374.194 575.118v1.059h-1.059v-1.059h-1.76v.764h-.943v.94h1.052v1.049h-1.052v-1.049h-1.116v1.647h-1.059v1.049h-.7v1.056h-.771a58.748 58.748 0 0 0-3.7 6.948c-2.369-3.3-4.206-4.6-5.653-5.075-.785-.236-1.725.616-.426 1.953a24.173 24.173 0 0 1 4.822 8.155c.479 1.14 2.629 1.316 3.062.158a35.037 35.037 0 0 1 3.819-7.486v-1.172h.841v-1.059h.883v-1.228h1.056v-1.182h-1.066v-1.077h1.066v1.077h1.045v-1.066h.841v-1.285h.94v-.884h.908v-2.231z" transform="translate(-348.219 -568.547)" style="fill:#141515"/>
    <path data-name="Path 30725" d="m1058.409 894.526-.3.472a3.348 3.348 0 0 0 .95.5 3.764 3.764 0 0 0 1.222.2 2.61 2.61 0 0 0 1.675-.493 1.681 1.681 0 0 0 .6-1.348 1.635 1.635 0 0 0-.573-1.309 4.69 4.69 0 0 0-1.44-.75 3.735 3.735 0 0 1-1.122-.563 1 1 0 0 1-.366-.817 1.006 1.006 0 0 1 .331-.813 1.623 1.623 0 0 1 1.073-.3 3.229 3.229 0 0 1 1.021.155 3.427 3.427 0 0 1 .559.243l.236-.514a3.419 3.419 0 0 0-.7-.3 4.029 4.029 0 0 0-1.141-.141 2.335 2.335 0 0 0-1.513.444 1.516 1.516 0 0 0-.542 1.218 1.617 1.617 0 0 0 .521 1.267 4.187 4.187 0 0 0 1.313.721 4.724 4.724 0 0 1 1.176.584 1.1 1.1 0 0 1 .447.933 1.065 1.065 0 0 1-.419.894 1.807 1.807 0 0 1-1.119.313 3.08 3.08 0 0 1-1.154-.215 3.789 3.789 0 0 1-.736-.391z" transform="translate(-1013.227 -865.763)" style="fill:#fff"/>
    <path data-name="Path 30726" d="M1151.411 927.407h.736l1.32 4.276 1.264-4.276h.711l-1.717 5.42a1.594 1.594 0 0 1-1.626 1.352 1.828 1.828 0 0 1-.535-.092l.088-.535a2.282 2.282 0 0 0 .4.049 1.115 1.115 0 0 0 1.112-.932z" transform="translate(-1101.64 -902.39)" style="fill:#fff"/>
    <path data-name="Path 30727" d="M1250.457 925.727c.985 0 1.232.823 1.232 1.626v3.425h-.715v-3.414c0-.528-.081-1.024-.735-1.024a2.065 2.065 0 0 0-1.38.757v3.681h-.714v-3.414c0-.528-.078-1.024-.736-1.024a2.154 2.154 0 0 0-1.38.767v3.671h-.714v-4.963h.408l.208.813a2.413 2.413 0 0 1 1.7-.9 1.112 1.112 0 0 1 1.123.873 2.4 2.4 0 0 1 1.707-.873z" transform="translate(-1190.627 -900.797)" style="fill:#fff"/>
    <path data-name="Path 30728" d="M1391.109 928.148a3.819 3.819 0 0 0-2.062.774.747.747 0 0 0-.169.535.731.731 0 0 0 .841.813 2.34 2.34 0 0 0 1.39-.556zm0-.725c0-.725-.218-1.095-1-1.095a3.039 3.039 0 0 0-1.408.447l-.267-.486a2.942 2.942 0 0 1 1.735-.563c1.2 0 1.658.665 1.658 1.746v3.3h-.4s-.211-.605-.218-.605a2.257 2.257 0 0 1-1.549.686 1.376 1.376 0 0 1-1.5-1.362 1.292 1.292 0 0 1 .693-1.211 7.221 7.221 0 0 1 2.263-.616v-.246z" transform="translate(-1325.986 -900.797)" style="fill:#fff"/>
    <path data-name="Path 30729" d="M1488.644 925.815h.408l.208.845a2.4 2.4 0 0 1 1.8-.932c1.056 0 1.33.823 1.33 1.626v3.425h-.711v-3.414c0-.528-.123-1.024-.834-1.024a2.182 2.182 0 0 0-1.482.8v3.643h-.714z" transform="translate(-1421.215 -900.797)" style="fill:#fff"/>
    <path data-name="Path 30730" d="M1578.984 902.25v-.514h.767l.208-1.418h.486v1.418h1.112v.514h-1.112v3.227c0 .479.081.746.556.746a1.96 1.96 0 0 0 .577-.1l.106.5a1.71 1.71 0 0 1-.715.162 1.09 1.09 0 0 1-1.239-1.253v-3.282z" transform="translate(-1506.824 -876.719)" style="fill:#fff"/>
    <path data-name="Path 30731" d="M1646.168 927.979c-.039-1.13-.415-1.707-1.161-1.707-.672 0-1.141.535-1.2 1.707zm-1.042 2.3a2.229 2.229 0 0 0 1.362-.5l.306.415a2.35 2.35 0 0 1-1.728.658c-1.239 0-2.024-.993-2.024-2.562 0-1.538.774-2.569 1.957-2.569 1.207 0 1.9.89 1.9 2.608v.158h-3.099c.049 1.161.437 1.788 1.33 1.788z" transform="translate(-1567.529 -900.797)" style="fill:#fff"/>
    <path data-name="Path 30732" d="M1733.518 928.335c0-1.218.5-2.608 2.017-2.608a2.243 2.243 0 0 1 1.517.514l-.3.479a2.009 2.009 0 0 0-1.221-.419c-1.133 0-1.26 1.2-1.26 2.045 0 .8.159 1.936 1.3 1.936a1.75 1.75 0 0 0 1.232-.5l.338.408a2.142 2.142 0 0 1-1.608.665c-1.478 0-2.017-1.33-2.017-2.524z" transform="translate(-1653.266 -900.797)" style="fill:#fff"/>
    <path data-name="Path 30733" d="M924.618 927.407h.735l1.32 4.276 1.264-4.276h.711l-1.718 5.42a1.594 1.594 0 0 1-1.626 1.352 1.827 1.827 0 0 1-.535-.092l.088-.535a2.278 2.278 0 0 0 .4.049 1.115 1.115 0 0 0 1.112-.932z" transform="translate(-886.722 -902.39)" style="fill:#fff"/>
    <path data-name="Path 30734" d="M840.912 892.592c.014.1.021.208.028.31s.01.215.01.313c0 .067 0 .13-.007.194s-.007.123-.014.183a2.8 2.8 0 0 1-.067.349c-.014.053-.032.109-.049.162a1.067 1.067 0 0 1-.06.148 1.217 1.217 0 0 1-.067.137c-.028.046-.053.088-.081.127a.973.973 0 0 1-.088.113.953.953 0 0 1-.105.1c-.035.031-.074.06-.113.088a1.019 1.019 0 0 1-.123.07 1.14 1.14 0 0 1-.13.06c-.046.014-.1.028-.144.039a1.042 1.042 0 0 1-.151.025 1.246 1.246 0 0 1-.162.011h-.113c-.039 0-.07-.007-.106-.014l-.1-.021-.077-.021h-.017c-.032-.011-.063-.025-.091-.035a.661.661 0 0 1-.088-.039.347.347 0 0 1-.081-.042 1.338 1.338 0 0 1-.077-.042c-.025-.014-.046-.032-.07-.046a.754.754 0 0 0-.067-.049l-.063-.053c-.018-.018-.039-.035-.056-.056l-.053-.053a.606.606 0 0 0-.046-.049.533.533 0 0 0-.042-.049.424.424 0 0 1-.035-.049V891.8l.007-.007a1.242 1.242 0 0 1 .123-.109c.042-.035.085-.067.13-.1a1.271 1.271 0 0 1 .137-.085 1.534 1.534 0 0 1 .148-.081 1.456 1.456 0 0 1 .155-.063c.056-.018.109-.032.166-.046s.109-.021.165-.028.116-.007.172-.007h.113c.039 0 .077.007.116.014s.074.014.113.025a.723.723 0 0 1 .116.032.75.75 0 0 1 .113.042c.035.018.074.039.109.06a.716.716 0 0 1 .106.074c.035.028.07.056.106.088s.063.07.095.109a1.092 1.092 0 0 1 .088.123 1.406 1.406 0 0 1 .077.144 1.684 1.684 0 0 1 .067.158 1.037 1.037 0 0 1 .053.19c.014.078.028.166.039.257zm.711 1.151a3.417 3.417 0 0 0 .042-.588c0-.084 0-.179-.007-.278s-.01-.19-.021-.282a2.376 2.376 0 0 0-.028-.243 1.466 1.466 0 0 0-.035-.179c-.014-.06-.028-.116-.046-.169s-.039-.106-.056-.155-.042-.1-.063-.144-.049-.091-.074-.13-.049-.084-.077-.123a1.277 1.277 0 0 0-.084-.109 1.169 1.169 0 0 0-.088-.1c-.032-.032-.063-.063-.095-.092s-.067-.053-.1-.081l-.1-.07a.8.8 0 0 0-.105-.063c-.035-.021-.07-.039-.106-.056s-.07-.035-.106-.049a1.006 1.006 0 0 0-.109-.039 1.094 1.094 0 0 0-.215-.06c-.035-.007-.074-.01-.109-.018s-.067-.01-.1-.014a.949.949 0 0 1-.1-.007h-.1a1.865 1.865 0 0 0-.2.007 1.66 1.66 0 0 0-.19.028 1.379 1.379 0 0 0-.172.042 1.167 1.167 0 0 0-.165.063 1.538 1.538 0 0 0-.155.074 1.606 1.606 0 0 0-.278.197 1.41 1.41 0 0 0-.127.123h-.056v-2.615h-.686v6.849h.51l.151-.486V894.955h.053v.014a.194.194 0 0 0 .025.032l.028.039.007.011c.011.01.018.021.028.032a.587.587 0 0 0 .042.049.719.719 0 0 0 .049.053.934.934 0 0 0 .056.049l.063.053.07.049c.025.014.049.032.077.046a.69.69 0 0 0 .088.046c.032.014.063.028.1.042.028.01.06.025.092.035h.014l.113.032.12.021c.042.007.088.01.13.014s.092 0 .141 0 .127 0 .19-.007.123-.018.187-.028.123-.028.183-.046a1.461 1.461 0 0 0 .172-.063h.007a1.621 1.621 0 0 0 .172-.085 1.508 1.508 0 0 0 .162-.1c.053-.039.105-.077.155-.12s.095-.092.144-.141c.042-.049.088-.1.126-.155s.081-.116.12-.179.07-.13.106-.2.063-.141.092-.218a2.147 2.147 0 0 0 .074-.239c.021-.084.039-.169.053-.26z" transform="translate(-804.361 -865.635)" style="fill:#fff"/>
</svg>
