<svg xmlns="http://www.w3.org/2000/svg" width="136.467" height="35.127" viewBox="0 0 136.467 35.127">
    <g data-name="Group 2730">
        <path data-name="Path 30742" d="M18.248 35.265A17.564 17.564 0 1 0 .684 17.7a17.564 17.564 0 0 0 17.564 17.565zM23.727 8.32c.267-.947-.653-1.508-1.492-.909l-11.721 8.35c-.911.649-.767 1.941.215 1.941h3.086v-.024h6.015l-4.9 1.729-2.161 7.676c-.267.947.653 1.508 1.492.909l11.721-8.35c.911-.649.767-1.941-.215-1.941h-4.681z" transform="translate(-.684 -.138)" style="fill:#03256c;fill-rule:evenodd"/>
        <text transform="translate(42.467 24.592)" style="font-size:21px;font-family:Sora-Medium,Sora;font-weight:500"><tspan x="0" y="0">Wellnest</tspan></text>
    </g>
</svg>
