<svg xmlns="http://www.w3.org/2000/svg" width="228.478" height="59.124" viewBox="0 0 228.478 59.124">
    <g data-name="Group 2718">
        <path data-name="Path 30742" d="M30.246 59.262A29.562 29.562 0 1 0 .684 29.7a29.562 29.562 0 0 0 29.562 29.562zm9.222-45.353c.449-1.595-1.1-2.537-2.512-1.531L17.229 26.433c-1.533 1.092-1.292 3.267.362 3.267h5.195v-.04h10.125l-8.25 2.911-3.637 12.92c-.449 1.595 1.1 2.537 2.512 1.531l19.728-14.055C44.8 31.875 44.555 29.7 42.9 29.7h-7.876z" transform="translate(-.684 -.138)" style="fill:#03256c;fill-rule:evenodd"/>
        <text transform="translate(71.478 41.728)" style="font-size:35px;font-family:Sora-Medium,Sora;font-weight:500"><tspan x="0" y="0">Wellnest</tspan></text>
    </g>
</svg>
