<svg xmlns="http://www.w3.org/2000/svg" width="83" height="14.824" viewBox="0 0 83 14.824">
  <defs>
    <style>
      .cls-1 {
        fill: #00b57a;
      }
    </style>
  </defs>
  <g id="Group_2712" data-name="Group 2712" transform="translate(-1201 -522)">
    <path id="Path_30619" data-name="Path 30619" class="cls-1" d="M568.821,565l1.84,5.662h5.953l-4.816,3.5,1.839,5.662-4.816-3.5-4.816,3.5,1.839-5.662-4.816-3.5h5.953Z" transform="translate(639.972 -43)"/>
    <path id="Path_30735" data-name="Path 30735" class="cls-1" d="M568.821,565l1.84,5.662h5.953l-4.816,3.5,1.839,5.662-4.816-3.5-4.816,3.5,1.839-5.662-4.816-3.5h5.953Z" transform="translate(655.45 -43)"/>
    <path id="Path_30736" data-name="Path 30736" class="cls-1" d="M568.821,565l1.84,5.662h5.953l-4.816,3.5,1.839,5.662-4.816-3.5-4.816,3.5,1.839-5.662-4.816-3.5h5.953Z" transform="translate(671.959 -43)"/>
    <path id="Path_30737" data-name="Path 30737" class="cls-1" d="M568.821,565l1.84,5.662h5.953l-4.816,3.5,1.839,5.662-4.816-3.5-4.816,3.5,1.839-5.662-4.816-3.5h5.953Z" transform="translate(689.156 -43)"/>
    <path id="Path_30738" data-name="Path 30738" class="cls-1" d="M568.821,565l1.84,5.662h5.953l-4.816,3.5,1.839,5.662-4.816-3.5-4.816,3.5,1.839-5.662-4.816-3.5h5.953Z" transform="translate(707.386 -43)"/>
  </g>
</svg>
