<svg xmlns="http://www.w3.org/2000/svg" width="52" height="54" viewBox="0 0 51.748 49.542">
    <g data-name="Layer 2">
        <path data-name="Path 30743" d="M49.225 21.68a8.318 8.318 0 0 1-2.079-1.713 8.128 8.128 0 0 1 .666-2.745c.7-1.975 1.492-4.213.221-5.953s-3.669-1.684-5.775-1.636a8.234 8.234 0 0 1-2.779-.188 8.106 8.106 0 0 1-1.023-2.558c-.6-2.033-1.278-4.331-3.369-5.019-2.016-.65-3.883.78-5.534 2.036a7.9 7.9 0 0 1-2.433 1.518A7.9 7.9 0 0 1 24.658 3.9c-1.646-1.249-3.506-2.692-5.532-2.033-2.086.679-2.767 2.984-3.369 5.017a8.224 8.224 0 0 1-1.012 2.556 8.378 8.378 0 0 1-2.784.192c-2.113-.058-4.492-.12-5.775 1.636s-.481 3.977.221 5.95a8.027 8.027 0 0 1 .676 2.745 8.3 8.3 0 0 1-2.075 1.717c-1.761 1.2-3.761 2.572-3.761 4.8s2 3.587 3.761 4.8a8.3 8.3 0 0 1 2.076 1.713 8.024 8.024 0 0 1-.657 2.748c-.7 1.973-1.487 4.211-.219 5.95s3.66 1.684 5.775 1.636a8.243 8.243 0 0 1 2.781.188 8.181 8.181 0 0 1 1.02 2.558c.6 2.033 1.278 4.331 3.369 5.019a3.427 3.427 0 0 0 1.037.164 8.137 8.137 0 0 0 4.495-2.2 7.9 7.9 0 0 1 2.435-1.518 7.9 7.9 0 0 1 2.461 1.518c1.648 1.258 3.515 2.695 5.534 2.033 2.086-.679 2.767-2.984 3.369-5.014a8.152 8.152 0 0 1 1.02-2.555 8.241 8.241 0 0 1 2.774-.192c2.113.051 4.492.12 5.775-1.636s.481-3.977-.221-5.953a8.133 8.133 0 0 1-.676-2.741 8.267 8.267 0 0 1 2.079-1.716C51 30.07 53 28.7 53 26.475s-2.012-3.59-3.775-4.795z" fill="#f39237" transform="translate(-1.247 -1.705)"/>
        <path data-name="Path 30744" d="M14.84 21.078a1.793 1.793 0 0 1-1.275-.529l-4.812-4.813a1.8 1.8 0 0 1 2.55-2.55l3.705 3.705 8.373-6.28a1.8 1.8 0 0 1 2.167 2.889l-9.624 7.218a1.807 1.807 0 0 1-1.083.361z" transform="translate(8.626 10.31)" fill="#fff"/>
    </g>
</svg>  