<svg xmlns="http://www.w3.org/2000/svg" width="54" height="54" viewBox="0 0 53.931 53.931">
    <g data-name="phone-call (1)">
        <g data-name="Group 1944">
            <path data-name="Path 30714" d="M46.03 7.895a26.966 26.966 0 1 0 7.9 19.065 26.966 26.966 0 0 0-7.9-19.065zm-5.192 29.667v-.009l-1.366 1.357a7.191 7.191 0 0 1-6.786 1.942 23.894 23.894 0 0 1-6.939-3.11 32.061 32.061 0 0 1-5.474-4.413 32.307 32.307 0 0 1-4.09-4.962 25.165 25.165 0 0 1-3.074-6.22 7.191 7.191 0 0 1 1.8-7.344l1.6-1.6a1.141 1.141 0 0 1 1.614 0l5.052 5.052a1.141 1.141 0 0 1 0 1.614l-2.966 2.966a2.418 2.418 0 0 0-.252 3.146 34.69 34.69 0 0 0 3.543 4.152 34.478 34.478 0 0 0 4.674 3.928 2.436 2.436 0 0 0 3.11-.27l2.867-2.912a1.141 1.141 0 0 1 1.614 0l5.061 5.07a1.141 1.141 0 0 1 .012 1.613z" fill="#f39237"/>
        </g>
    </g>
</svg>
