<svg xmlns="http://www.w3.org/2000/svg" width="40.559" height="48.614" viewBox="0 0 40.559 48.614">
    <g data-name="user (2)">
        <path data-name="Path 29780" d="M98.741 23.418a11.33 11.33 0 0 0 8.279-3.43 11.33 11.33 0 0 0 3.43-8.279 11.331 11.331 0 0 0-3.43-8.279 11.706 11.706 0 0 0-16.557 0 11.33 11.33 0 0 0-3.43 8.278 11.33 11.33 0 0 0 3.43 8.279 11.333 11.333 0 0 0 8.278 3.431zM92.477 5.445a8.857 8.857 0 0 1 12.528 0 8.465 8.465 0 0 1 2.6 6.264 8.465 8.465 0 0 1-2.6 6.264 8.856 8.856 0 0 1-12.528 0 8.463 8.463 0 0 1-2.6-6.264 8.464 8.464 0 0 1 2.6-6.264zm0 0" transform="translate(-78.768)" style="fill:#fffaf3"/>
        <path data-name="Path 29781" d="M40.46 261.215a28.92 28.92 0 0 0-.394-3.072 24.2 24.2 0 0 0-.756-3.088 15.256 15.256 0 0 0-1.27-2.88 10.858 10.858 0 0 0-1.914-2.495 8.442 8.442 0 0 0-2.75-1.728 9.5 9.5 0 0 0-3.511-.635 3.563 3.563 0 0 0-1.9.807c-.57.372-1.238.8-1.982 1.278a11.359 11.359 0 0 1-2.565 1.13 9.96 9.96 0 0 1-6.275 0 11.325 11.325 0 0 1-2.563-1.13c-.738-.471-1.405-.9-1.984-1.279a3.56 3.56 0 0 0-1.9-.807 9.492 9.492 0 0 0-3.51.636 8.434 8.434 0 0 0-2.751 1.728 10.86 10.86 0 0 0-1.914 2.495 15.284 15.284 0 0 0-1.27 2.881 24.259 24.259 0 0 0-.755 3.088 28.723 28.723 0 0 0-.396 3.073c-.065.928-.1 1.895-.1 2.871a8.072 8.072 0 0 0 2.4 6.107 8.63 8.63 0 0 0 6.178 2.253h23.405a8.631 8.631 0 0 0 6.178-2.253 8.069 8.069 0 0 0 2.4-6.107c0-.98-.033-1.946-.1-2.871zm-4.26 6.915a5.81 5.81 0 0 1-4.214 1.468H8.575a5.81 5.81 0 0 1-4.214-1.468 5.271 5.271 0 0 1-1.513-4.043c0-.911.03-1.81.09-2.674a25.907 25.907 0 0 1 .356-2.766 21.4 21.4 0 0 1 .664-2.723 12.442 12.442 0 0 1 1.033-2.342 8.049 8.049 0 0 1 1.409-1.844 5.6 5.6 0 0 1 1.83-1.138 6.555 6.555 0 0 1 2.244-.433c.1.053.277.154.565.342.586.382 1.261.817 2.007 1.294a14.115 14.115 0 0 0 3.22 1.439 12.807 12.807 0 0 0 8.027 0 14.131 14.131 0 0 0 3.222-1.44c.764-.488 1.42-.911 2.005-1.293.288-.187.465-.289.565-.342a6.56 6.56 0 0 1 2.244.433 5.608 5.608 0 0 1 1.829 1.138 8.028 8.028 0 0 1 1.407 1.844 12.4 12.4 0 0 1 1.034 2.341 21.347 21.347 0 0 1 .665 2.723 26.128 26.128 0 0 1 .356 2.767c.06.86.091 1.759.091 2.673a5.271 5.271 0 0 1-1.511 4.044zm0 0" transform="translate(0 -223.834)" style="fill:#fffaf3"/>
    </g>
</svg>
